<?xml version="1.0" encoding="UTF-8"?>
<svg width="18px" height="18px" viewBox="0 0 18 18" version="1.1" xmlns="http://www.w3.org/2000/svg" xmlns:xlink="http://www.w3.org/1999/xlink">
    <title>3 .ic/solid/new copy 6</title>
    <defs>
        <path d="M10.2428148,8.33364018 L16.4033957,2.17224097 C16.7544236,1.8220313 16.7544236,1.24844022 16.4033957,0.897412294 L15.7684361,0.263270942 C15.4190447,-0.0877569807 14.8454536,-0.0877569807 14.4944257,0.263270942 L8.33384474,6.42467014 L2.17244554,0.263270942 C1.82141761,-0.0877569807 1.24782653,-0.0877569807 0.897616856,0.263270942 L0.262657257,0.897412294 C-0.0875524189,1.24844022 -0.0875524189,1.8220313 0.262657257,2.17224097 L6.42405646,8.33364018 L0.262657257,14.4942211 C-0.0875524189,14.8452491 -0.0875524189,15.4188401 0.262657257,15.7690498 L0.897616856,16.4040094 C1.24782653,16.7550373 1.82141761,16.7550373 2.17244554,16.4040094 L8.33384474,10.2426102 L14.4944257,16.4040094 C14.8454536,16.7550373 15.4190447,16.7550373 15.7684361,16.4040094 L16.4033957,15.7690498 C16.7544236,15.4188401 16.7544236,14.8452491 16.4033957,14.4942211 L10.2428148,8.33364018 Z" id="path-1"></path>
    </defs>
    <g id="Page-1" stroke="none" stroke-width="1" fill="none" fill-rule="evenodd">
        <g id="GTA---Job-Details-send" transform="translate(-667.000000, -199.000000)">
            <g id="Group-39" transform="translate(636.000000, 160.000000)">
                <g id="Pop-up-header" transform="translate(30.000000, 23.000000)">
                    <g id="3-.ic/solid/new-copy-6" transform="translate(1.666667, 16.666667)">
                        <mask id="mask-2" fill="white">
                            <use xlink:href="#path-1"></use>
                        </mask>
                        <use id="Mask" fill="#EEEEEE" xlink:href="#path-1"></use>
                    </g>
                </g>
            </g>
        </g>
    </g>
</svg>