<svg width="20" height="20" viewBox="0 0 20 20" fill="none" xmlns="http://www.w3.org/2000/svg">
<g id="icon/search">
<path id="Union" fill-rule="evenodd" clip-rule="evenodd" d="M12.6843 14.5236C11.6567 15.2042 10.4245 15.6006 9.09961 15.6006C5.50976 15.6006 2.59961 12.6904 2.59961 9.10059C2.59961 5.51074 5.50976 2.60059 9.09961 2.60059C12.6895 2.60059 15.5996 5.51074 15.5996 9.10059C15.5996 10.4253 15.2033 11.6575 14.5228 12.6851L18.1343 16.2966C18.642 16.8043 18.642 17.6274 18.1343 18.1351C17.6266 18.6427 16.8035 18.6427 16.2958 18.1351L12.6843 14.5236ZM13.5524 9.10068C13.5524 11.5599 11.5589 13.5534 9.09971 13.5534C6.64053 13.5534 4.64697 11.5599 4.64697 9.10068C4.64697 6.64151 6.64053 4.64795 9.09971 4.64795C11.5589 4.64795 13.5524 6.64151 13.5524 9.10068Z" fill="white"/>
</g>
</svg>
